<svg xmlns="http://www.w3.org/2000/svg" xmlns:xlink="http://www.w3.org/1999/xlink" viewBox="0 0 1240 350" width="100%" font-family="-apple-system,BlinkMacSystemFont,Segoe UI,Helvetica Neue,PingFang TC,Noto Sans TC,sans-serif"><defs><marker id="ah-sink" viewBox="0 0 10 10" refX="9" refY="5" markerWidth="7" markerHeight="7" orient="auto-start-reverse"><path d="M0,0 L10,5 L0,10 z" fill="#6b7280"/></marker></defs><text x="60" y="28" font-size="17" fill="#6b7280" text-anchor="start" font-weight="400">attention weights, one head, deeper layer (rows sum to 1)</text><rect x="60" y="40" width="32" height="32" rx="2" fill="rgb(55,95,195)" stroke="#e5e7eb" stroke-width="1"/><rect x="94" y="40" width="32" height="32" rx="2" fill="#f8fafc" stroke="#e5e7eb" stroke-width="1"/><rect x="128" y="40" width="32" height="32" rx="2" fill="#f8fafc" stroke="#e5e7eb" stroke-width="1"/><rect x="162" y="40" width="32" height="32" rx="2" fill="#f8fafc" stroke="#e5e7eb" stroke-width="1"/><rect x="196" y="40" width="32" height="32" rx="2" fill="#f8fafc" stroke="#e5e7eb" stroke-width="1"/><rect x="230" y="40" width="32" height="32" rx="2" fill="#f8fafc" stroke="#e5e7eb" stroke-width="1"/><rect x="264" y="40" width="32" height="32" rx="2" fill="#f8fafc" stroke="#e5e7eb" stroke-width="1"/><rect x="298" y="40" width="32" height="32" rx="2" fill="#f8fafc" stroke="#e5e7eb" stroke-width="1"/><rect x="60" y="74" width="32" height="32" rx="2" fill="rgb(70,107,199)" stroke="#e5e7eb" stroke-width="1"/><rect x="94" y="74" width="32" height="32" rx="2" fill="rgb(239,242,250)" stroke="#e5e7eb" stroke-width="1"/><rect x="128" y="74" width="32" height="32" rx="2" fill="#f8fafc" stroke="#e5e7eb" stroke-width="1"/><rect x="162" y="74" width="32" height="32" rx="2" fill="#f8fafc" stroke="#e5e7eb" stroke-width="1"/><rect x="196" y="74" width="32" height="32" rx="2" fill="#f8fafc" stroke="#e5e7eb" stroke-width="1"/><rect x="230" y="74" width="32" height="32" rx="2" fill="#f8fafc" stroke="#e5e7eb" stroke-width="1"/><rect x="264" y="74" width="32" height="32" rx="2" fill="#f8fafc" stroke="#e5e7eb" stroke-width="1"/><rect x="298" y="74" width="32" height="32" rx="2" fill="#f8fafc" stroke="#e5e7eb" stroke-width="1"/><rect x="60" y="108" width="32" height="32" rx="2" fill="rgb(96,128,207)" stroke="#e5e7eb" stroke-width="1"/><rect x="94" y="108" width="32" height="32" rx="2" fill="rgb(254,254,254)" stroke="#e5e7eb" stroke-width="1"/><rect x="128" y="108" width="32" height="32" rx="2" fill="rgb(213,221,242)" stroke="#e5e7eb" stroke-width="1"/><rect x="162" y="108" width="32" height="32" rx="2" fill="#f8fafc" stroke="#e5e7eb" stroke-width="1"/><rect x="196" y="108" width="32" height="32" rx="2" fill="#f8fafc" stroke="#e5e7eb" stroke-width="1"/><rect x="230" y="108" width="32" height="32" rx="2" fill="#f8fafc" stroke="#e5e7eb" stroke-width="1"/><rect x="264" y="108" width="32" height="32" rx="2" fill="#f8fafc" stroke="#e5e7eb" stroke-width="1"/><rect x="298" y="108" width="32" height="32" rx="2" fill="#f8fafc" stroke="#e5e7eb" stroke-width="1"/><rect x="60" y="142" width="32" height="32" rx="2" fill="rgb(133,157,218)" stroke="#e5e7eb" stroke-width="1"/><rect x="94" y="142" width="32" height="32" rx="2" fill="rgb(249,250,253)" stroke="#e5e7eb" stroke-width="1"/><rect x="128" y="142" width="32" height="32" rx="2" fill="rgb(220,227,244)" stroke="#e5e7eb" stroke-width="1"/><rect x="162" y="142" width="32" height="32" rx="2" fill="rgb(216,224,243)" stroke="#e5e7eb" stroke-width="1"/><rect x="196" y="142" width="32" height="32" rx="2" fill="#f8fafc" stroke="#e5e7eb" stroke-width="1"/><rect x="230" y="142" width="32" height="32" rx="2" fill="#f8fafc" stroke="#e5e7eb" stroke-width="1"/><rect x="264" y="142" width="32" height="32" rx="2" fill="#f8fafc" stroke="#e5e7eb" stroke-width="1"/><rect x="298" y="142" width="32" height="32" rx="2" fill="#f8fafc" stroke="#e5e7eb" stroke-width="1"/><rect x="60" y="176" width="32" height="32" rx="2" fill="rgb(178,193,232)" stroke="#e5e7eb" stroke-width="1"/><rect x="94" y="176" width="32" height="32" rx="2" fill="rgb(234,238,248)" stroke="#e5e7eb" stroke-width="1"/><rect x="128" y="176" width="32" height="32" rx="2" fill="rgb(216,224,243)" stroke="#e5e7eb" stroke-width="1"/><rect x="162" y="176" width="32" height="32" rx="2" fill="rgb(230,235,247)" stroke="#e5e7eb" stroke-width="1"/><rect x="196" y="176" width="32" height="32" rx="2" fill="rgb(215,223,243)" stroke="#e5e7eb" stroke-width="1"/><rect x="230" y="176" width="32" height="32" rx="2" fill="#f8fafc" stroke="#e5e7eb" stroke-width="1"/><rect x="264" y="176" width="32" height="32" rx="2" fill="#f8fafc" stroke="#e5e7eb" stroke-width="1"/><rect x="298" y="176" width="32" height="32" rx="2" fill="#f8fafc" stroke="#e5e7eb" stroke-width="1"/><rect x="60" y="210" width="32" height="32" rx="2" fill="rgb(178,193,231)" stroke="#e5e7eb" stroke-width="1"/><rect x="94" y="210" width="32" height="32" rx="2" fill="rgb(242,245,251)" stroke="#e5e7eb" stroke-width="1"/><rect x="128" y="210" width="32" height="32" rx="2" fill="rgb(249,250,253)" stroke="#e5e7eb" stroke-width="1"/><rect x="162" y="210" width="32" height="32" rx="2" fill="rgb(228,233,247)" stroke="#e5e7eb" stroke-width="1"/><rect x="196" y="210" width="32" height="32" rx="2" fill="rgb(206,216,240)" stroke="#e5e7eb" stroke-width="1"/><rect x="230" y="210" width="32" height="32" rx="2" fill="rgb(224,230,245)" stroke="#e5e7eb" stroke-width="1"/><rect x="264" y="210" width="32" height="32" rx="2" fill="#f8fafc" stroke="#e5e7eb" stroke-width="1"/><rect x="298" y="210" width="32" height="32" rx="2" fill="#f8fafc" stroke="#e5e7eb" stroke-width="1"/><rect x="60" y="244" width="32" height="32" rx="2" fill="rgb(177,192,231)" stroke="#e5e7eb" stroke-width="1"/><rect x="94" y="244" width="32" height="32" rx="2" fill="rgb(238,242,250)" stroke="#e5e7eb" stroke-width="1"/><rect x="128" y="244" width="32" height="32" rx="2" fill="rgb(223,230,245)" stroke="#e5e7eb" stroke-width="1"/><rect x="162" y="244" width="32" height="32" rx="2" fill="rgb(250,251,253)" stroke="#e5e7eb" stroke-width="1"/><rect x="196" y="244" width="32" height="32" rx="2" fill="rgb(242,245,251)" stroke="#e5e7eb" stroke-width="1"/><rect x="230" y="244" width="32" height="32" rx="2" fill="rgb(226,232,246)" stroke="#e5e7eb" stroke-width="1"/><rect x="264" y="244" width="32" height="32" rx="2" fill="rgb(224,230,245)" stroke="#e5e7eb" stroke-width="1"/><rect x="298" y="244" width="32" height="32" rx="2" fill="#f8fafc" stroke="#e5e7eb" stroke-width="1"/><rect x="60" y="278" width="32" height="32" rx="2" fill="rgb(180,195,232)" stroke="#e5e7eb" stroke-width="1"/><rect x="94" y="278" width="32" height="32" rx="2" fill="rgb(250,251,253)" stroke="#e5e7eb" stroke-width="1"/><rect x="128" y="278" width="32" height="32" rx="2" fill="rgb(242,245,251)" stroke="#e5e7eb" stroke-width="1"/><rect x="162" y="278" width="32" height="32" rx="2" fill="rgb(245,247,252)" stroke="#e5e7eb" stroke-width="1"/><rect x="196" y="278" width="32" height="32" rx="2" fill="rgb(242,244,251)" stroke="#e5e7eb" stroke-width="1"/><rect x="230" y="278" width="32" height="32" rx="2" fill="rgb(218,225,243)" stroke="#e5e7eb" stroke-width="1"/><rect x="264" y="278" width="32" height="32" rx="2" fill="rgb(245,247,252)" stroke="#e5e7eb" stroke-width="1"/><rect x="298" y="278" width="32" height="32" rx="2" fill="rgb(214,222,242)" stroke="#e5e7eb" stroke-width="1"/><text x="77" y="334" font-size="15" fill="#dc2626" text-anchor="middle" font-weight="400">token 1</text><text x="230" y="334" font-size="15" fill="#6b7280" text-anchor="middle" font-weight="400">keys →</text><text x="420" y="70" font-size="20" fill="#1f2328" text-anchor="start" font-weight="700">the first column is dark in most rows</text><svg x="420" y="94.43" width="249.28" height="19.57" viewBox="0 0 249.28 19.57"><defs>
  <style type="text/css">*{stroke-linejoin: round; stroke-linecap: butt}</style>
 </defs>
 <g id="t102-figure_1">
  <g id="t102-patch_1">
   <path d="M 0 19.57 
L 249.28 19.57 
L 249.28 -0 
L 0 -0 
L 0 19.57 
z
" style="fill: none"/>
  </g>
  <g id="t102-text_1">
   <!-- $\Sigma_j\, p_{ij} = 1\ \text{is forced by softmax}$ -->
   <g style="fill: #1f2328" transform="translate(0 13.49) scale(0.19 -0.19)">
    <defs>
     <path id="t102-Cmr10-a7" d="M 422 0 
Q 359 0 359 72 
Q 359 97 378 116 
L 1953 1906 
L 378 4172 
Q 359 4191 359 4206 
L 359 4313 
Q 359 4331 379 4351 
Q 400 4372 422 4372 
L 4078 4372 
L 4256 2906 
L 4072 2906 
Q 4016 3363 3889 3614 
Q 3763 3866 3555 3981 
Q 3347 4097 3083 4122 
Q 2819 4147 2309 4147 
L 1119 4147 
L 2456 2234 
Q 2472 2188 2472 2188 
Q 2472 2150 2456 2144 
L 831 294 
L 2291 294 
Q 2800 294 3067 319 
Q 3334 344 3546 458 
Q 3759 572 3889 830 
Q 4019 1088 4072 1538 
L 4256 1538 
L 4078 0 
L 422 0 
z
" transform="scale(0.015625)"/>
     <path id="t102-Cmmi10-6a" d="M -84 -909 
Q -84 -753 23 -639 
Q 131 -525 288 -525 
Q 391 -525 461 -589 
Q 531 -653 531 -756 
Q 531 -878 454 -976 
Q 378 -1075 263 -1106 
Q 375 -1147 488 -1147 
Q 759 -1147 959 -895 
Q 1159 -644 1241 -331 
L 1844 2075 
Q 1888 2259 1888 2388 
Q 1888 2663 1697 2663 
Q 1416 2663 1205 2408 
Q 994 2153 863 1819 
Q 850 1778 813 1778 
L 738 1778 
Q 684 1778 684 1838 
L 684 1856 
Q 828 2241 1093 2534 
Q 1359 2828 1709 2828 
Q 1975 2828 2145 2662 
Q 2316 2497 2316 2241 
Q 2316 2150 2297 2059 
L 1691 -372 
Q 1625 -631 1440 -847 
Q 1256 -1063 1000 -1188 
Q 744 -1313 475 -1313 
Q 259 -1313 87 -1209 
Q -84 -1106 -84 -909 
z
M 1941 3878 
Q 1941 4019 2050 4125 
Q 2159 4231 2297 4231 
Q 2406 4231 2476 4164 
Q 2547 4097 2547 3994 
Q 2547 3850 2433 3742 
Q 2319 3634 2181 3634 
Q 2078 3634 2009 3706 
Q 1941 3778 1941 3878 
z
" transform="scale(0.015625)"/>
     <path id="t102-Cmmi10-70" d="M -159 -1241 
Q -219 -1241 -219 -1159 
Q -197 -1019 -134 -1019 
Q 66 -1019 145 -983 
Q 225 -947 269 -800 
L 991 2081 
Q 1038 2200 1038 2388 
Q 1038 2663 850 2663 
Q 650 2663 553 2423 
Q 456 2184 366 1819 
Q 366 1778 313 1778 
L 238 1778 
Q 222 1778 203 1801 
Q 184 1825 184 1844 
Q 253 2122 317 2315 
Q 381 2509 517 2668 
Q 653 2828 856 2828 
Q 1075 2828 1240 2704 
Q 1406 2581 1453 2369 
Q 1628 2572 1840 2700 
Q 2053 2828 2278 2828 
Q 2547 2828 2745 2684 
Q 2944 2541 3044 2308 
Q 3144 2075 3144 1806 
Q 3144 1394 2933 953 
Q 2722 513 2361 220 
Q 2000 -72 1588 -72 
Q 1400 -72 1248 34 
Q 1097 141 1013 313 
L 722 -825 
Q 706 -919 703 -934 
Q 703 -1019 1125 -1019 
Q 1191 -1019 1191 -1100 
Q 1169 -1184 1155 -1212 
Q 1141 -1241 1081 -1241 
L -159 -1241 
z
M 1594 97 
Q 1816 97 2006 280 
Q 2197 463 2316 691 
Q 2403 863 2479 1111 
Q 2556 1359 2612 1640 
Q 2669 1922 2669 2088 
Q 2669 2234 2630 2362 
Q 2591 2491 2502 2577 
Q 2413 2663 2266 2663 
Q 2031 2663 1823 2495 
Q 1616 2328 1447 2081 
L 1447 2059 
L 1094 647 
Q 1138 419 1263 258 
Q 1388 97 1594 97 
z
" transform="scale(0.015625)"/>
     <path id="t102-Cmmi10-69" d="M 500 459 
Q 500 578 550 709 
L 1069 2088 
Q 1153 2322 1153 2472 
Q 1153 2663 1013 2663 
Q 759 2663 595 2402 
Q 431 2141 353 1819 
Q 341 1778 300 1778 
L 225 1778 
Q 172 1778 172 1838 
L 172 1856 
Q 275 2238 487 2533 
Q 700 2828 1025 2828 
Q 1253 2828 1411 2678 
Q 1569 2528 1569 2297 
Q 1569 2178 1516 2047 
L 997 672 
Q 909 459 909 288 
Q 909 97 1056 97 
Q 1306 97 1473 364 
Q 1641 631 1709 941 
Q 1722 978 1759 978 
L 1838 978 
Q 1863 978 1878 961 
Q 1894 944 1894 922 
Q 1894 916 1888 903 
Q 1800 541 1583 234 
Q 1366 -72 1044 -72 
Q 819 -72 659 83 
Q 500 238 500 459 
z
M 1222 3878 
Q 1222 4013 1334 4122 
Q 1447 4231 1581 4231 
Q 1691 4231 1761 4164 
Q 1831 4097 1831 3994 
Q 1831 3850 1717 3742 
Q 1603 3634 1466 3634 
Q 1363 3634 1292 3704 
Q 1222 3775 1222 3878 
z
" transform="scale(0.015625)"/>
     <path id="t102-Cmr10-3d" d="M 481 850 
Q 428 850 393 890 
Q 359 931 359 978 
Q 359 1031 393 1068 
Q 428 1106 481 1106 
L 4500 1106 
Q 4547 1106 4581 1068 
Q 4616 1031 4616 978 
Q 4616 931 4581 890 
Q 4547 850 4500 850 
L 481 850 
z
M 481 2094 
Q 428 2094 393 2131 
Q 359 2169 359 2222 
Q 359 2269 393 2309 
Q 428 2350 481 2350 
L 4500 2350 
Q 4547 2350 4581 2309 
Q 4616 2269 4616 2222 
Q 4616 2169 4581 2131 
Q 4547 2094 4500 2094 
L 481 2094 
z
" transform="scale(0.015625)"/>
     <path id="t102-Cmr10-31" d="M 594 0 
L 594 225 
Q 1394 225 1394 428 
L 1394 3788 
Q 1063 3628 556 3628 
L 556 3853 
Q 1341 3853 1741 4263 
L 1831 4263 
Q 1853 4263 1873 4245 
Q 1894 4228 1894 4206 
L 1894 428 
Q 1894 225 2694 225 
L 2694 0 
L 594 0 
z
" transform="scale(0.015625)"/>
     <path id="t102-Cmr10-69" d="M 197 0 
L 197 225 
Q 416 225 556 259 
Q 697 294 697 428 
L 697 2175 
Q 697 2422 601 2478 
Q 506 2534 225 2534 
L 225 2759 
L 1147 2828 
L 1147 428 
Q 1147 294 1269 259 
Q 1391 225 1594 225 
L 1594 0 
L 197 0 
z
M 469 3928 
Q 469 4069 575 4175 
Q 681 4281 819 4281 
Q 909 4281 993 4234 
Q 1078 4188 1125 4103 
Q 1172 4019 1172 3928 
Q 1172 3791 1065 3684 
Q 959 3578 819 3578 
Q 681 3578 575 3684 
Q 469 3791 469 3928 
z
" transform="scale(0.015625)"/>
     <path id="t102-Cmr10-73" d="M 213 -19 
L 213 1025 
Q 213 1075 269 1075 
L 347 1075 
Q 384 1075 397 1025 
Q 575 97 1259 97 
Q 1563 97 1767 234 
Q 1972 372 1972 659 
Q 1972 866 1812 1011 
Q 1653 1156 1434 1209 
L 1006 1294 
Q 791 1341 614 1437 
Q 438 1534 325 1695 
Q 213 1856 213 2069 
Q 213 2350 361 2529 
Q 509 2709 746 2789 
Q 984 2869 1259 2869 
Q 1588 2869 1831 2694 
L 2016 2853 
Q 2016 2869 2047 2869 
L 2094 2869 
Q 2113 2869 2128 2851 
Q 2144 2834 2144 2816 
L 2144 1978 
Q 2144 1919 2094 1919 
L 2016 1919 
Q 1959 1919 1959 1978 
Q 1959 2313 1773 2516 
Q 1588 2719 1253 2719 
Q 966 2719 755 2612 
Q 544 2506 544 2247 
Q 544 2069 695 1955 
Q 847 1841 1050 1791 
L 1484 1709 
Q 1703 1659 1892 1540 
Q 2081 1422 2192 1240 
Q 2303 1059 2303 831 
Q 2303 600 2223 429 
Q 2144 259 2001 146 
Q 1859 34 1665 -19 
Q 1472 -72 1259 -72 
Q 859 -72 575 197 
L 341 -56 
Q 341 -72 306 -72 
L 269 -72 
Q 213 -72 213 -19 
z
" transform="scale(0.015625)"/>
     <path id="t102-Cmr10-20" transform="scale(0.015625)"/>
     <path id="t102-Cmr10-66" d="M 206 0 
L 206 225 
Q 422 225 562 259 
Q 703 294 703 428 
L 703 2534 
L 213 2534 
L 213 2759 
L 703 2759 
L 703 3525 
Q 703 3731 789 3911 
Q 875 4091 1020 4225 
Q 1166 4359 1355 4436 
Q 1544 4513 1747 4513 
Q 1963 4513 2136 4384 
Q 2309 4256 2309 4044 
Q 2309 3922 2226 3839 
Q 2144 3756 2022 3756 
Q 1900 3756 1814 3839 
Q 1728 3922 1728 4044 
Q 1728 4244 1900 4313 
Q 1797 4347 1716 4347 
Q 1528 4347 1395 4214 
Q 1263 4081 1197 3890 
Q 1131 3700 1131 3513 
L 1131 2759 
L 1869 2759 
L 1869 2534 
L 1153 2534 
L 1153 428 
Q 1153 297 1340 261 
Q 1528 225 1772 225 
L 1772 0 
L 206 0 
z
" transform="scale(0.015625)"/>
     <path id="t102-Cmr10-6f" d="M 1600 -72 
Q 1216 -72 887 123 
Q 559 319 368 647 
Q 178 975 178 1363 
Q 178 1656 283 1928 
Q 388 2200 583 2414 
Q 778 2628 1037 2748 
Q 1297 2869 1600 2869 
Q 1994 2869 2317 2661 
Q 2641 2453 2828 2104 
Q 3016 1756 3016 1363 
Q 3016 978 2825 648 
Q 2634 319 2307 123 
Q 1981 -72 1600 -72 
z
M 1600 116 
Q 2113 116 2284 487 
Q 2456 859 2456 1434 
Q 2456 1756 2422 1967 
Q 2388 2178 2272 2350 
Q 2200 2456 2089 2536 
Q 1978 2616 1854 2658 
Q 1731 2700 1600 2700 
Q 1400 2700 1220 2609 
Q 1041 2519 922 2350 
Q 803 2169 770 1951 
Q 738 1734 738 1434 
Q 738 1075 800 789 
Q 863 503 1052 309 
Q 1241 116 1600 116 
z
" transform="scale(0.015625)"/>
     <path id="t102-Cmr10-72" d="M 166 0 
L 166 225 
Q 384 225 525 259 
Q 666 294 666 428 
L 666 2175 
Q 666 2347 614 2423 
Q 563 2500 466 2517 
Q 369 2534 166 2534 
L 166 2759 
L 1081 2828 
L 1081 2203 
Q 1184 2481 1375 2654 
Q 1566 2828 1838 2828 
Q 2028 2828 2178 2715 
Q 2328 2603 2328 2419 
Q 2328 2303 2245 2217 
Q 2163 2131 2041 2131 
Q 1922 2131 1837 2215 
Q 1753 2300 1753 2419 
Q 1753 2591 1875 2663 
L 1838 2663 
Q 1578 2663 1414 2475 
Q 1250 2288 1181 2009 
Q 1113 1731 1113 1478 
L 1113 428 
Q 1113 225 1734 225 
L 1734 0 
L 166 0 
z
" transform="scale(0.015625)"/>
     <path id="t102-Cmr10-63" d="M 1594 -72 
Q 1206 -72 890 129 
Q 575 331 394 667 
Q 213 1003 213 1381 
Q 213 1759 392 2106 
Q 572 2453 889 2661 
Q 1206 2869 1594 2869 
Q 1969 2869 2276 2722 
Q 2584 2575 2584 2241 
Q 2584 2116 2495 2023 
Q 2406 1931 2278 1931 
Q 2150 1931 2061 2023 
Q 1972 2116 1972 2241 
Q 1972 2353 2044 2436 
Q 2116 2519 2222 2541 
Q 2000 2681 1600 2681 
Q 1294 2681 1106 2478 
Q 919 2275 844 1975 
Q 769 1675 769 1381 
Q 769 1072 861 783 
Q 953 494 1158 305 
Q 1363 116 1672 116 
Q 1975 116 2187 302 
Q 2400 488 2478 788 
Q 2478 825 2528 825 
L 2606 825 
Q 2625 825 2640 808 
Q 2656 791 2656 769 
L 2656 750 
Q 2559 372 2271 150 
Q 1984 -72 1594 -72 
z
" transform="scale(0.015625)"/>
     <path id="t102-Cmr10-65" d="M 1594 -72 
Q 1203 -72 876 133 
Q 550 338 364 680 
Q 178 1022 178 1403 
Q 178 1778 348 2115 
Q 519 2453 823 2661 
Q 1128 2869 1503 2869 
Q 1797 2869 2014 2770 
Q 2231 2672 2372 2497 
Q 2513 2322 2584 2084 
Q 2656 1847 2656 1563 
Q 2656 1478 2591 1478 
L 738 1478 
L 738 1409 
Q 738 878 952 497 
Q 1166 116 1650 116 
Q 1847 116 2014 203 
Q 2181 291 2304 447 
Q 2428 603 2472 781 
Q 2478 803 2495 820 
Q 2513 838 2534 838 
L 2591 838 
Q 2656 838 2656 756 
Q 2566 394 2266 161 
Q 1966 -72 1594 -72 
z
M 744 1638 
L 2203 1638 
Q 2203 1878 2136 2125 
Q 2069 2372 1912 2536 
Q 1756 2700 1503 2700 
Q 1141 2700 942 2361 
Q 744 2022 744 1638 
z
" transform="scale(0.015625)"/>
     <path id="t102-Cmr10-64" d="M 1563 -72 
Q 1184 -72 871 133 
Q 559 338 386 672 
Q 213 1006 213 1381 
Q 213 1769 402 2101 
Q 591 2434 916 2631 
Q 1241 2828 1631 2828 
Q 1866 2828 2075 2729 
Q 2284 2631 2438 2456 
L 2438 3788 
Q 2438 3959 2386 4036 
Q 2334 4113 2239 4130 
Q 2144 4147 1941 4147 
L 1941 4372 
L 2888 4441 
L 2888 581 
Q 2888 413 2939 336 
Q 2991 259 3086 242 
Q 3181 225 3384 225 
L 3384 0 
L 2419 -72 
L 2419 331 
Q 2253 141 2025 34 
Q 1797 -72 1563 -72 
z
M 909 556 
Q 1019 347 1201 222 
Q 1384 97 1600 97 
Q 1866 97 2087 250 
Q 2309 403 2419 647 
L 2419 2181 
Q 2344 2322 2230 2433 
Q 2116 2544 1973 2603 
Q 1831 2663 1672 2663 
Q 1338 2663 1134 2473 
Q 931 2284 850 1990 
Q 769 1697 769 1375 
Q 769 1119 795 928 
Q 822 738 909 556 
z
" transform="scale(0.015625)"/>
     <path id="t102-Cmr10-62" d="M 666 0 
L 666 3788 
Q 666 3959 614 4036 
Q 563 4113 466 4130 
Q 369 4147 166 4147 
L 166 4372 
L 1113 4441 
L 1113 2438 
Q 1219 2556 1361 2645 
Q 1503 2734 1665 2781 
Q 1828 2828 1997 2828 
Q 2284 2828 2529 2712 
Q 2775 2597 2956 2394 
Q 3138 2191 3239 1927 
Q 3341 1663 3341 1381 
Q 3341 994 3152 659 
Q 2963 325 2636 126 
Q 2309 -72 1919 -72 
Q 1675 -72 1447 53 
Q 1219 178 1069 384 
L 850 0 
L 666 0 
z
M 1131 628 
Q 1238 394 1438 245 
Q 1638 97 1881 97 
Q 2213 97 2417 287 
Q 2622 478 2703 768 
Q 2784 1059 2784 1381 
Q 2784 1922 2644 2203 
Q 2581 2328 2473 2434 
Q 2366 2541 2233 2602 
Q 2100 2663 1953 2663 
Q 1697 2663 1478 2527 
Q 1259 2391 1131 2163 
L 1131 628 
z
" transform="scale(0.015625)"/>
     <path id="t102-Cmr10-79" d="M 441 -1050 
Q 563 -1147 709 -1147 
Q 1113 -1147 1369 -538 
L 1588 0 
L 628 2350 
Q 569 2469 447 2501 
Q 325 2534 122 2534 
L 122 2759 
L 1466 2759 
L 1466 2534 
Q 1113 2534 1113 2381 
Q 1113 2356 1119 2344 
L 1831 594 
L 2472 2169 
Q 2491 2219 2491 2278 
Q 2491 2356 2448 2414 
Q 2406 2472 2339 2503 
Q 2272 2534 2188 2534 
L 2188 2759 
L 3250 2759 
L 3250 2534 
Q 3053 2534 2904 2443 
Q 2756 2353 2675 2175 
L 1569 -538 
Q 1481 -744 1364 -917 
Q 1247 -1091 1078 -1202 
Q 909 -1313 709 -1313 
Q 475 -1313 298 -1158 
Q 122 -1003 122 -775 
Q 122 -656 203 -575 
Q 284 -494 403 -494 
Q 484 -494 548 -530 
Q 613 -566 648 -628 
Q 684 -691 684 -775 
Q 684 -878 615 -959 
Q 547 -1041 441 -1050 
z
" transform="scale(0.015625)"/>
     <path id="t102-Cmr10-74" d="M 653 769 
L 653 2534 
L 122 2534 
L 122 2700 
Q 541 2700 737 3090 
Q 934 3481 934 3938 
L 1119 3938 
L 1119 2759 
L 2022 2759 
L 2022 2534 
L 1119 2534 
L 1119 781 
Q 1119 516 1208 316 
Q 1297 116 1528 116 
Q 1747 116 1844 327 
Q 1941 538 1941 781 
L 1941 1159 
L 2125 1159 
L 2125 769 
Q 2125 569 2051 373 
Q 1978 178 1834 53 
Q 1691 -72 1484 -72 
Q 1100 -72 876 158 
Q 653 388 653 769 
z
" transform="scale(0.015625)"/>
     <path id="t102-Cmr10-6d" d="M 191 0 
L 191 225 
Q 409 225 550 259 
Q 691 294 691 428 
L 691 2175 
Q 691 2347 639 2423 
Q 588 2500 491 2517 
Q 394 2534 191 2534 
L 191 2759 
L 1119 2828 
L 1119 2203 
Q 1247 2478 1498 2653 
Q 1750 2828 2047 2828 
Q 2784 2828 2913 2228 
Q 3041 2497 3287 2662 
Q 3534 2828 3828 2828 
Q 4119 2828 4317 2734 
Q 4516 2641 4616 2448 
Q 4716 2256 4716 1966 
L 4716 428 
Q 4716 294 4858 259 
Q 5000 225 5216 225 
L 5216 0 
L 3750 0 
L 3750 225 
Q 3969 225 4109 259 
Q 4250 294 4250 428 
L 4250 1947 
Q 4250 2269 4159 2466 
Q 4069 2663 3788 2663 
Q 3419 2663 3178 2366 
Q 2938 2069 2938 1691 
L 2938 428 
Q 2938 294 3078 259 
Q 3219 225 3438 225 
L 3438 0 
L 1972 0 
L 1972 225 
Q 2191 225 2331 259 
Q 2472 294 2472 428 
L 2472 1947 
Q 2472 2259 2381 2461 
Q 2291 2663 2009 2663 
Q 1638 2663 1398 2366 
Q 1159 2069 1159 1691 
L 1159 428 
Q 1159 294 1300 259 
Q 1441 225 1656 225 
L 1656 0 
L 191 0 
z
" transform="scale(0.015625)"/>
     <path id="t102-Cmr10-61" d="M 256 628 
Q 256 1009 556 1248 
Q 856 1488 1276 1586 
Q 1697 1684 2075 1684 
L 2075 1947 
Q 2075 2131 1994 2304 
Q 1913 2478 1759 2589 
Q 1606 2700 1422 2700 
Q 997 2700 775 2509 
Q 897 2509 976 2417 
Q 1056 2325 1056 2203 
Q 1056 2075 965 1984 
Q 875 1894 750 1894 
Q 622 1894 531 1984 
Q 441 2075 441 2203 
Q 441 2541 747 2705 
Q 1053 2869 1422 2869 
Q 1681 2869 1943 2758 
Q 2206 2647 2373 2440 
Q 2541 2234 2541 1959 
L 2541 519 
Q 2541 394 2594 289 
Q 2647 184 2759 184 
Q 2866 184 2917 290 
Q 2969 397 2969 519 
L 2969 928 
L 3156 928 
L 3156 519 
Q 3156 375 3081 245 
Q 3006 116 2879 39 
Q 2753 -38 2606 -38 
Q 2419 -38 2283 107 
Q 2147 253 2131 453 
Q 2013 213 1781 70 
Q 1550 -72 1288 -72 
Q 1044 -72 808 0 
Q 572 72 414 226 
Q 256 381 256 628 
z
M 775 628 
Q 775 403 940 250 
Q 1106 97 1331 97 
Q 1538 97 1706 200 
Q 1875 303 1975 481 
Q 2075 659 2075 856 
L 2075 1522 
Q 1784 1522 1479 1426 
Q 1175 1331 975 1128 
Q 775 925 775 628 
z
" transform="scale(0.015625)"/>
     <path id="t102-Cmr10-78" d="M 78 0 
L 78 225 
Q 322 225 537 320 
Q 753 416 903 603 
L 1484 1344 
L 728 2328 
Q 616 2469 483 2501 
Q 350 2534 109 2534 
L 109 2759 
L 1441 2759 
L 1441 2534 
Q 1356 2534 1282 2496 
Q 1209 2459 1209 2388 
Q 1209 2363 1228 2328 
L 1741 1663 
L 2125 2156 
Q 2203 2250 2203 2344 
Q 2203 2422 2151 2478 
Q 2100 2534 2016 2534 
L 2016 2759 
L 3194 2759 
L 3194 2534 
Q 2947 2534 2730 2439 
Q 2513 2344 2363 2156 
L 1856 1509 
L 2675 428 
Q 2797 288 2928 256 
Q 3059 225 3303 225 
L 3303 0 
L 1972 0 
L 1972 225 
Q 2050 225 2122 262 
Q 2194 300 2194 372 
Q 2194 400 2175 428 
L 1600 1191 
L 1141 603 
Q 1069 522 1069 416 
Q 1069 338 1122 281 
Q 1175 225 1247 225 
L 1247 0 
L 78 0 
z
" transform="scale(0.015625)"/>
    </defs>
    <use xlink:href="#t102-Cmr10-a7" transform="translate(0 0.484375)"/>
    <use xlink:href="#t102-Cmmi10-6a" transform="translate(76.680937 -16.521875) scale(0.7)"/>
    <use xlink:href="#t102-Cmmi10-70" transform="translate(126.470032 0.484375)"/>
    <use xlink:href="#t102-Cmmi10-69" transform="translate(176.763001 -16.521875) scale(0.7)"/>
    <use xlink:href="#t102-Cmmi10-6a" transform="translate(200.859681 -16.521875) scale(0.7)"/>
    <use xlink:href="#t102-Cmr10-3d" transform="translate(253.574915 0.484375)"/>
    <use xlink:href="#t102-Cmr10-31" transform="translate(348.819056 0.484375)"/>
    <use xlink:href="#t102-Cmr10-69" transform="translate(428.083086 0.484375)"/>
    <use xlink:href="#t102-Cmr10-73" transform="translate(455.768633 0.484375)"/>
    <use xlink:href="#t102-Cmr10-20" transform="translate(495.17293 0.484375)"/>
    <use xlink:href="#t102-Cmr10-66" transform="translate(528.473711 0.484375)"/>
    <use xlink:href="#t102-Cmr10-6f" transform="translate(558.991289 0.484375)"/>
    <use xlink:href="#t102-Cmr10-72" transform="translate(608.991289 0.484375)"/>
    <use xlink:href="#t102-Cmr10-63" transform="translate(648.102617 0.484375)"/>
    <use xlink:href="#t102-Cmr10-65" transform="translate(692.487383 0.484375)"/>
    <use xlink:href="#t102-Cmr10-64" transform="translate(736.872148 0.484375)"/>
    <use xlink:href="#t102-Cmr10-20" transform="translate(792.389727 0.484375)"/>
    <use xlink:href="#t102-Cmr10-62" transform="translate(825.690508 0.484375)"/>
    <use xlink:href="#t102-Cmr10-79" transform="translate(881.208086 0.484375)"/>
    <use xlink:href="#t102-Cmr10-20" transform="translate(933.893633 0.484375)"/>
    <use xlink:href="#t102-Cmr10-73" transform="translate(967.194414 0.484375)"/>
    <use xlink:href="#t102-Cmr10-6f" transform="translate(1006.598711 0.484375)"/>
    <use xlink:href="#t102-Cmr10-66" transform="translate(1056.598711 0.484375)"/>
    <use xlink:href="#t102-Cmr10-74" transform="translate(1087.116289 0.484375)"/>
    <use xlink:href="#t102-Cmr10-6d" transform="translate(1125.934648 0.484375)"/>
    <use xlink:href="#t102-Cmr10-61" transform="translate(1209.23543 0.484375)"/>
    <use xlink:href="#t102-Cmr10-78" transform="translate(1259.23543 0.484375)"/>
   </g>
  </g>
 </g>
</svg><text x="420" y="140" font-size="17" fill="#1f2328" text-anchor="start" font-weight="400">a head that has nothing useful to read still has to put its mass somewhere;</text><text x="420" y="164" font-size="17" fill="#1f2328" text-anchor="start" font-weight="400">the first token is always visible to every query, so it becomes the drain</text><text x="420" y="204" font-size="17" fill="#6b7280" text-anchor="start" font-weight="400">the mass lands on a token whose content is semantically empty (Xiao et al.'s reading)</text><text x="420" y="244" font-size="17" fill="#1f2328" text-anchor="start" font-weight="400">consequence (W5): evict the first token from the cache and the model breaks;</text><text x="420" y="268" font-size="17" fill="#1f2328" text-anchor="start" font-weight="400">keep it and a sliding window works — StreamingLLM</text><text x="420" y="306" font-size="16" fill="#6b7280" text-anchor="start" font-weight="400">phenomenon: Xiao et al. 2023.  Why it happens: still argued in 2025.</text><text x="1220" y="340" font-size="17" fill="#6b7280" text-anchor="end" font-weight="400">schematic — not a measurement</text></svg>