<svg xmlns="http://www.w3.org/2000/svg" width="416" height="436" font-family="system-ui, sans-serif" font-size="11">
<rect width="416" height="436" fill="white"/>
<text x="110" y="24" font-size="14" font-weight="600">attention rollout · The keys that the old man who lives next door lost last week</text>
<rect x="110" y="40" width="22" height="22" fill="rgb(55,85,175)"/>
<rect x="132" y="40" width="22" height="22" fill="rgb(255,255,255)"/>
<rect x="154" y="40" width="22" height="22" fill="rgb(255,255,255)"/>
<rect x="176" y="40" width="22" height="22" fill="rgb(255,255,255)"/>
<rect x="198" y="40" width="22" height="22" fill="rgb(255,255,255)"/>
<rect x="220" y="40" width="22" height="22" fill="rgb(255,255,255)"/>
<rect x="242" y="40" width="22" height="22" fill="rgb(255,255,255)"/>
<rect x="264" y="40" width="22" height="22" fill="rgb(255,255,255)"/>
<rect x="286" y="40" width="22" height="22" fill="rgb(255,255,255)"/>
<rect x="308" y="40" width="22" height="22" fill="rgb(255,255,255)"/>
<rect x="330" y="40" width="22" height="22" fill="rgb(255,255,255)"/>
<rect x="352" y="40" width="22" height="22" fill="rgb(255,255,255)"/>
<rect x="374" y="40" width="22" height="22" fill="rgb(255,255,255)"/>
<text x="104" y="55" text-anchor="end">The</text>
<rect x="110" y="62" width="22" height="22" fill="rgb(55,85,175)"/>
<rect x="132" y="62" width="22" height="22" fill="rgb(254,254,254)"/>
<rect x="154" y="62" width="22" height="22" fill="rgb(255,255,255)"/>
<rect x="176" y="62" width="22" height="22" fill="rgb(255,255,255)"/>
<rect x="198" y="62" width="22" height="22" fill="rgb(255,255,255)"/>
<rect x="220" y="62" width="22" height="22" fill="rgb(255,255,255)"/>
<rect x="242" y="62" width="22" height="22" fill="rgb(255,255,255)"/>
<rect x="264" y="62" width="22" height="22" fill="rgb(255,255,255)"/>
<rect x="286" y="62" width="22" height="22" fill="rgb(255,255,255)"/>
<rect x="308" y="62" width="22" height="22" fill="rgb(255,255,255)"/>
<rect x="330" y="62" width="22" height="22" fill="rgb(255,255,255)"/>
<rect x="352" y="62" width="22" height="22" fill="rgb(255,255,255)"/>
<rect x="374" y="62" width="22" height="22" fill="rgb(255,255,255)"/>
<text x="104" y="77" text-anchor="end">␣keys</text>
<rect x="110" y="84" width="22" height="22" fill="rgb(55,85,175)"/>
<rect x="132" y="84" width="22" height="22" fill="rgb(254,254,254)"/>
<rect x="154" y="84" width="22" height="22" fill="rgb(254,254,254)"/>
<rect x="176" y="84" width="22" height="22" fill="rgb(255,255,255)"/>
<rect x="198" y="84" width="22" height="22" fill="rgb(255,255,255)"/>
<rect x="220" y="84" width="22" height="22" fill="rgb(255,255,255)"/>
<rect x="242" y="84" width="22" height="22" fill="rgb(255,255,255)"/>
<rect x="264" y="84" width="22" height="22" fill="rgb(255,255,255)"/>
<rect x="286" y="84" width="22" height="22" fill="rgb(255,255,255)"/>
<rect x="308" y="84" width="22" height="22" fill="rgb(255,255,255)"/>
<rect x="330" y="84" width="22" height="22" fill="rgb(255,255,255)"/>
<rect x="352" y="84" width="22" height="22" fill="rgb(255,255,255)"/>
<rect x="374" y="84" width="22" height="22" fill="rgb(255,255,255)"/>
<text x="104" y="99" text-anchor="end">␣that</text>
<rect x="110" y="106" width="22" height="22" fill="rgb(55,85,175)"/>
<rect x="132" y="106" width="22" height="22" fill="rgb(254,254,254)"/>
<rect x="154" y="106" width="22" height="22" fill="rgb(254,254,254)"/>
<rect x="176" y="106" width="22" height="22" fill="rgb(254,254,254)"/>
<rect x="198" y="106" width="22" height="22" fill="rgb(255,255,255)"/>
<rect x="220" y="106" width="22" height="22" fill="rgb(255,255,255)"/>
<rect x="242" y="106" width="22" height="22" fill="rgb(255,255,255)"/>
<rect x="264" y="106" width="22" height="22" fill="rgb(255,255,255)"/>
<rect x="286" y="106" width="22" height="22" fill="rgb(255,255,255)"/>
<rect x="308" y="106" width="22" height="22" fill="rgb(255,255,255)"/>
<rect x="330" y="106" width="22" height="22" fill="rgb(255,255,255)"/>
<rect x="352" y="106" width="22" height="22" fill="rgb(255,255,255)"/>
<rect x="374" y="106" width="22" height="22" fill="rgb(255,255,255)"/>
<text x="104" y="121" text-anchor="end">␣the</text>
<rect x="110" y="128" width="22" height="22" fill="rgb(55,85,175)"/>
<rect x="132" y="128" width="22" height="22" fill="rgb(254,254,254)"/>
<rect x="154" y="128" width="22" height="22" fill="rgb(254,254,254)"/>
<rect x="176" y="128" width="22" height="22" fill="rgb(254,254,254)"/>
<rect x="198" y="128" width="22" height="22" fill="rgb(254,254,254)"/>
<rect x="220" y="128" width="22" height="22" fill="rgb(255,255,255)"/>
<rect x="242" y="128" width="22" height="22" fill="rgb(255,255,255)"/>
<rect x="264" y="128" width="22" height="22" fill="rgb(255,255,255)"/>
<rect x="286" y="128" width="22" height="22" fill="rgb(255,255,255)"/>
<rect x="308" y="128" width="22" height="22" fill="rgb(255,255,255)"/>
<rect x="330" y="128" width="22" height="22" fill="rgb(255,255,255)"/>
<rect x="352" y="128" width="22" height="22" fill="rgb(255,255,255)"/>
<rect x="374" y="128" width="22" height="22" fill="rgb(255,255,255)"/>
<text x="104" y="143" text-anchor="end">␣old</text>
<rect x="110" y="150" width="22" height="22" fill="rgb(55,85,175)"/>
<rect x="132" y="150" width="22" height="22" fill="rgb(254,254,254)"/>
<rect x="154" y="150" width="22" height="22" fill="rgb(254,254,254)"/>
<rect x="176" y="150" width="22" height="22" fill="rgb(254,254,254)"/>
<rect x="198" y="150" width="22" height="22" fill="rgb(254,254,254)"/>
<rect x="220" y="150" width="22" height="22" fill="rgb(254,254,254)"/>
<rect x="242" y="150" width="22" height="22" fill="rgb(255,255,255)"/>
<rect x="264" y="150" width="22" height="22" fill="rgb(255,255,255)"/>
<rect x="286" y="150" width="22" height="22" fill="rgb(255,255,255)"/>
<rect x="308" y="150" width="22" height="22" fill="rgb(255,255,255)"/>
<rect x="330" y="150" width="22" height="22" fill="rgb(255,255,255)"/>
<rect x="352" y="150" width="22" height="22" fill="rgb(255,255,255)"/>
<rect x="374" y="150" width="22" height="22" fill="rgb(255,255,255)"/>
<text x="104" y="165" text-anchor="end">␣man</text>
<rect x="110" y="172" width="22" height="22" fill="rgb(55,85,175)"/>
<rect x="132" y="172" width="22" height="22" fill="rgb(254,254,254)"/>
<rect x="154" y="172" width="22" height="22" fill="rgb(254,254,254)"/>
<rect x="176" y="172" width="22" height="22" fill="rgb(254,254,254)"/>
<rect x="198" y="172" width="22" height="22" fill="rgb(254,254,254)"/>
<rect x="220" y="172" width="22" height="22" fill="rgb(254,254,254)"/>
<rect x="242" y="172" width="22" height="22" fill="rgb(254,254,254)"/>
<rect x="264" y="172" width="22" height="22" fill="rgb(255,255,255)"/>
<rect x="286" y="172" width="22" height="22" fill="rgb(255,255,255)"/>
<rect x="308" y="172" width="22" height="22" fill="rgb(255,255,255)"/>
<rect x="330" y="172" width="22" height="22" fill="rgb(255,255,255)"/>
<rect x="352" y="172" width="22" height="22" fill="rgb(255,255,255)"/>
<rect x="374" y="172" width="22" height="22" fill="rgb(255,255,255)"/>
<text x="104" y="187" text-anchor="end">␣who</text>
<rect x="110" y="194" width="22" height="22" fill="rgb(55,85,175)"/>
<rect x="132" y="194" width="22" height="22" fill="rgb(254,254,254)"/>
<rect x="154" y="194" width="22" height="22" fill="rgb(254,254,254)"/>
<rect x="176" y="194" width="22" height="22" fill="rgb(254,254,254)"/>
<rect x="198" y="194" width="22" height="22" fill="rgb(254,254,254)"/>
<rect x="220" y="194" width="22" height="22" fill="rgb(254,254,254)"/>
<rect x="242" y="194" width="22" height="22" fill="rgb(254,254,254)"/>
<rect x="264" y="194" width="22" height="22" fill="rgb(254,254,254)"/>
<rect x="286" y="194" width="22" height="22" fill="rgb(255,255,255)"/>
<rect x="308" y="194" width="22" height="22" fill="rgb(255,255,255)"/>
<rect x="330" y="194" width="22" height="22" fill="rgb(255,255,255)"/>
<rect x="352" y="194" width="22" height="22" fill="rgb(255,255,255)"/>
<rect x="374" y="194" width="22" height="22" fill="rgb(255,255,255)"/>
<text x="104" y="209" text-anchor="end">␣lives</text>
<rect x="110" y="216" width="22" height="22" fill="rgb(55,85,175)"/>
<rect x="132" y="216" width="22" height="22" fill="rgb(254,254,254)"/>
<rect x="154" y="216" width="22" height="22" fill="rgb(254,254,254)"/>
<rect x="176" y="216" width="22" height="22" fill="rgb(254,254,254)"/>
<rect x="198" y="216" width="22" height="22" fill="rgb(254,254,254)"/>
<rect x="220" y="216" width="22" height="22" fill="rgb(254,254,254)"/>
<rect x="242" y="216" width="22" height="22" fill="rgb(254,254,254)"/>
<rect x="264" y="216" width="22" height="22" fill="rgb(254,254,254)"/>
<rect x="286" y="216" width="22" height="22" fill="rgb(254,254,254)"/>
<rect x="308" y="216" width="22" height="22" fill="rgb(255,255,255)"/>
<rect x="330" y="216" width="22" height="22" fill="rgb(255,255,255)"/>
<rect x="352" y="216" width="22" height="22" fill="rgb(255,255,255)"/>
<rect x="374" y="216" width="22" height="22" fill="rgb(255,255,255)"/>
<text x="104" y="231" text-anchor="end">␣next</text>
<rect x="110" y="238" width="22" height="22" fill="rgb(55,85,175)"/>
<rect x="132" y="238" width="22" height="22" fill="rgb(254,254,254)"/>
<rect x="154" y="238" width="22" height="22" fill="rgb(254,254,254)"/>
<rect x="176" y="238" width="22" height="22" fill="rgb(254,254,254)"/>
<rect x="198" y="238" width="22" height="22" fill="rgb(254,254,254)"/>
<rect x="220" y="238" width="22" height="22" fill="rgb(254,254,254)"/>
<rect x="242" y="238" width="22" height="22" fill="rgb(254,254,254)"/>
<rect x="264" y="238" width="22" height="22" fill="rgb(254,254,254)"/>
<rect x="286" y="238" width="22" height="22" fill="rgb(254,254,254)"/>
<rect x="308" y="238" width="22" height="22" fill="rgb(254,254,254)"/>
<rect x="330" y="238" width="22" height="22" fill="rgb(255,255,255)"/>
<rect x="352" y="238" width="22" height="22" fill="rgb(255,255,255)"/>
<rect x="374" y="238" width="22" height="22" fill="rgb(255,255,255)"/>
<text x="104" y="253" text-anchor="end">␣door</text>
<rect x="110" y="260" width="22" height="22" fill="rgb(55,85,175)"/>
<rect x="132" y="260" width="22" height="22" fill="rgb(254,254,254)"/>
<rect x="154" y="260" width="22" height="22" fill="rgb(254,254,254)"/>
<rect x="176" y="260" width="22" height="22" fill="rgb(254,254,254)"/>
<rect x="198" y="260" width="22" height="22" fill="rgb(254,254,254)"/>
<rect x="220" y="260" width="22" height="22" fill="rgb(254,254,254)"/>
<rect x="242" y="260" width="22" height="22" fill="rgb(254,254,254)"/>
<rect x="264" y="260" width="22" height="22" fill="rgb(254,254,254)"/>
<rect x="286" y="260" width="22" height="22" fill="rgb(254,254,254)"/>
<rect x="308" y="260" width="22" height="22" fill="rgb(254,254,254)"/>
<rect x="330" y="260" width="22" height="22" fill="rgb(254,254,254)"/>
<rect x="352" y="260" width="22" height="22" fill="rgb(255,255,255)"/>
<rect x="374" y="260" width="22" height="22" fill="rgb(255,255,255)"/>
<text x="104" y="275" text-anchor="end">␣lost</text>
<rect x="110" y="282" width="22" height="22" fill="rgb(55,85,175)"/>
<rect x="132" y="282" width="22" height="22" fill="rgb(254,254,254)"/>
<rect x="154" y="282" width="22" height="22" fill="rgb(254,254,254)"/>
<rect x="176" y="282" width="22" height="22" fill="rgb(254,254,254)"/>
<rect x="198" y="282" width="22" height="22" fill="rgb(254,254,254)"/>
<rect x="220" y="282" width="22" height="22" fill="rgb(254,254,254)"/>
<rect x="242" y="282" width="22" height="22" fill="rgb(254,254,254)"/>
<rect x="264" y="282" width="22" height="22" fill="rgb(254,254,254)"/>
<rect x="286" y="282" width="22" height="22" fill="rgb(254,254,254)"/>
<rect x="308" y="282" width="22" height="22" fill="rgb(254,254,254)"/>
<rect x="330" y="282" width="22" height="22" fill="rgb(254,254,254)"/>
<rect x="352" y="282" width="22" height="22" fill="rgb(254,254,254)"/>
<rect x="374" y="282" width="22" height="22" fill="rgb(255,255,255)"/>
<text x="104" y="297" text-anchor="end">␣last</text>
<rect x="110" y="304" width="22" height="22" fill="rgb(55,85,175)"/>
<rect x="132" y="304" width="22" height="22" fill="rgb(254,254,254)"/>
<rect x="154" y="304" width="22" height="22" fill="rgb(254,254,254)"/>
<rect x="176" y="304" width="22" height="22" fill="rgb(254,254,254)"/>
<rect x="198" y="304" width="22" height="22" fill="rgb(254,254,254)"/>
<rect x="220" y="304" width="22" height="22" fill="rgb(254,254,254)"/>
<rect x="242" y="304" width="22" height="22" fill="rgb(254,254,254)"/>
<rect x="264" y="304" width="22" height="22" fill="rgb(254,254,254)"/>
<rect x="286" y="304" width="22" height="22" fill="rgb(254,254,254)"/>
<rect x="308" y="304" width="22" height="22" fill="rgb(254,254,254)"/>
<rect x="330" y="304" width="22" height="22" fill="rgb(254,254,254)"/>
<rect x="352" y="304" width="22" height="22" fill="rgb(254,254,254)"/>
<rect x="374" y="304" width="22" height="22" fill="rgb(254,254,254)"/>
<text x="104" y="319" text-anchor="end">␣week</text>
<text transform="translate(121,334) rotate(60)" text-anchor="start">The</text>
<text transform="translate(143,334) rotate(60)" text-anchor="start">␣keys</text>
<text transform="translate(165,334) rotate(60)" text-anchor="start">␣that</text>
<text transform="translate(187,334) rotate(60)" text-anchor="start">␣the</text>
<text transform="translate(209,334) rotate(60)" text-anchor="start">␣old</text>
<text transform="translate(231,334) rotate(60)" text-anchor="start">␣man</text>
<text transform="translate(253,334) rotate(60)" text-anchor="start">␣who</text>
<text transform="translate(275,334) rotate(60)" text-anchor="start">␣lives</text>
<text transform="translate(297,334) rotate(60)" text-anchor="start">␣next</text>
<text transform="translate(319,334) rotate(60)" text-anchor="start">␣door</text>
<text transform="translate(341,334) rotate(60)" text-anchor="start">␣lost</text>
<text transform="translate(363,334) rotate(60)" text-anchor="start">␣last</text>
<text transform="translate(385,334) rotate(60)" text-anchor="start">␣week</text>
</svg>
