<svg xmlns="http://www.w3.org/2000/svg" width="482" height="502" font-family="system-ui, sans-serif" font-size="11">
<rect width="482" height="502" fill="white"/>
<text x="110" y="24" font-size="14" font-weight="600">attention · layer 14 · head 11 · 那位住在隔壁、上星期把鑰匙弄丟的老先生今天終於</text>
<rect x="110" y="40" width="22" height="22" fill="rgb(55,85,175)"/>
<rect x="132" y="40" width="22" height="22" fill="rgb(255,255,255)"/>
<rect x="154" y="40" width="22" height="22" fill="rgb(255,255,255)"/>
<rect x="176" y="40" width="22" height="22" fill="rgb(255,255,255)"/>
<rect x="198" y="40" width="22" height="22" fill="rgb(255,255,255)"/>
<rect x="220" y="40" width="22" height="22" fill="rgb(255,255,255)"/>
<rect x="242" y="40" width="22" height="22" fill="rgb(255,255,255)"/>
<rect x="264" y="40" width="22" height="22" fill="rgb(255,255,255)"/>
<rect x="286" y="40" width="22" height="22" fill="rgb(255,255,255)"/>
<rect x="308" y="40" width="22" height="22" fill="rgb(255,255,255)"/>
<rect x="330" y="40" width="22" height="22" fill="rgb(255,255,255)"/>
<rect x="352" y="40" width="22" height="22" fill="rgb(255,255,255)"/>
<rect x="374" y="40" width="22" height="22" fill="rgb(255,255,255)"/>
<rect x="396" y="40" width="22" height="22" fill="rgb(255,255,255)"/>
<rect x="418" y="40" width="22" height="22" fill="rgb(255,255,255)"/>
<rect x="440" y="40" width="22" height="22" fill="rgb(255,255,255)"/>
<text x="104" y="55" text-anchor="end">那位</text>
<rect x="110" y="62" width="22" height="22" fill="rgb(136,153,207)"/>
<rect x="132" y="62" width="22" height="22" fill="rgb(173,186,222)"/>
<rect x="154" y="62" width="22" height="22" fill="rgb(255,255,255)"/>
<rect x="176" y="62" width="22" height="22" fill="rgb(255,255,255)"/>
<rect x="198" y="62" width="22" height="22" fill="rgb(255,255,255)"/>
<rect x="220" y="62" width="22" height="22" fill="rgb(255,255,255)"/>
<rect x="242" y="62" width="22" height="22" fill="rgb(255,255,255)"/>
<rect x="264" y="62" width="22" height="22" fill="rgb(255,255,255)"/>
<rect x="286" y="62" width="22" height="22" fill="rgb(255,255,255)"/>
<rect x="308" y="62" width="22" height="22" fill="rgb(255,255,255)"/>
<rect x="330" y="62" width="22" height="22" fill="rgb(255,255,255)"/>
<rect x="352" y="62" width="22" height="22" fill="rgb(255,255,255)"/>
<rect x="374" y="62" width="22" height="22" fill="rgb(255,255,255)"/>
<rect x="396" y="62" width="22" height="22" fill="rgb(255,255,255)"/>
<rect x="418" y="62" width="22" height="22" fill="rgb(255,255,255)"/>
<rect x="440" y="62" width="22" height="22" fill="rgb(255,255,255)"/>
<text x="104" y="77" text-anchor="end">住在</text>
<rect x="110" y="84" width="22" height="22" fill="rgb(141,158,209)"/>
<rect x="132" y="84" width="22" height="22" fill="rgb(171,183,221)"/>
<rect x="154" y="84" width="22" height="22" fill="rgb(251,252,253)"/>
<rect x="176" y="84" width="22" height="22" fill="rgb(255,255,255)"/>
<rect x="198" y="84" width="22" height="22" fill="rgb(255,255,255)"/>
<rect x="220" y="84" width="22" height="22" fill="rgb(255,255,255)"/>
<rect x="242" y="84" width="22" height="22" fill="rgb(255,255,255)"/>
<rect x="264" y="84" width="22" height="22" fill="rgb(255,255,255)"/>
<rect x="286" y="84" width="22" height="22" fill="rgb(255,255,255)"/>
<rect x="308" y="84" width="22" height="22" fill="rgb(255,255,255)"/>
<rect x="330" y="84" width="22" height="22" fill="rgb(255,255,255)"/>
<rect x="352" y="84" width="22" height="22" fill="rgb(255,255,255)"/>
<rect x="374" y="84" width="22" height="22" fill="rgb(255,255,255)"/>
<rect x="396" y="84" width="22" height="22" fill="rgb(255,255,255)"/>
<rect x="418" y="84" width="22" height="22" fill="rgb(255,255,255)"/>
<rect x="440" y="84" width="22" height="22" fill="rgb(255,255,255)"/>
<text x="104" y="99" text-anchor="end">隔壁</text>
<rect x="110" y="106" width="22" height="22" fill="rgb(169,182,220)"/>
<rect x="132" y="106" width="22" height="22" fill="rgb(186,196,227)"/>
<rect x="154" y="106" width="22" height="22" fill="rgb(231,235,245)"/>
<rect x="176" y="106" width="22" height="22" fill="rgb(231,235,245)"/>
<rect x="198" y="106" width="22" height="22" fill="rgb(255,255,255)"/>
<rect x="220" y="106" width="22" height="22" fill="rgb(255,255,255)"/>
<rect x="242" y="106" width="22" height="22" fill="rgb(255,255,255)"/>
<rect x="264" y="106" width="22" height="22" fill="rgb(255,255,255)"/>
<rect x="286" y="106" width="22" height="22" fill="rgb(255,255,255)"/>
<rect x="308" y="106" width="22" height="22" fill="rgb(255,255,255)"/>
<rect x="330" y="106" width="22" height="22" fill="rgb(255,255,255)"/>
<rect x="352" y="106" width="22" height="22" fill="rgb(255,255,255)"/>
<rect x="374" y="106" width="22" height="22" fill="rgb(255,255,255)"/>
<rect x="396" y="106" width="22" height="22" fill="rgb(255,255,255)"/>
<rect x="418" y="106" width="22" height="22" fill="rgb(255,255,255)"/>
<rect x="440" y="106" width="22" height="22" fill="rgb(255,255,255)"/>
<text x="104" y="121" text-anchor="end">、</text>
<rect x="110" y="128" width="22" height="22" fill="rgb(184,195,226)"/>
<rect x="132" y="128" width="22" height="22" fill="rgb(195,204,231)"/>
<rect x="154" y="128" width="22" height="22" fill="rgb(201,209,233)"/>
<rect x="176" y="128" width="22" height="22" fill="rgb(237,239,247)"/>
<rect x="198" y="128" width="22" height="22" fill="rgb(254,254,254)"/>
<rect x="220" y="128" width="22" height="22" fill="rgb(255,255,255)"/>
<rect x="242" y="128" width="22" height="22" fill="rgb(255,255,255)"/>
<rect x="264" y="128" width="22" height="22" fill="rgb(255,255,255)"/>
<rect x="286" y="128" width="22" height="22" fill="rgb(255,255,255)"/>
<rect x="308" y="128" width="22" height="22" fill="rgb(255,255,255)"/>
<rect x="330" y="128" width="22" height="22" fill="rgb(255,255,255)"/>
<rect x="352" y="128" width="22" height="22" fill="rgb(255,255,255)"/>
<rect x="374" y="128" width="22" height="22" fill="rgb(255,255,255)"/>
<rect x="396" y="128" width="22" height="22" fill="rgb(255,255,255)"/>
<rect x="418" y="128" width="22" height="22" fill="rgb(255,255,255)"/>
<rect x="440" y="128" width="22" height="22" fill="rgb(255,255,255)"/>
<text x="104" y="143" text-anchor="end">上</text>
<rect x="110" y="150" width="22" height="22" fill="rgb(156,171,215)"/>
<rect x="132" y="150" width="22" height="22" fill="rgb(172,185,222)"/>
<rect x="154" y="150" width="22" height="22" fill="rgb(244,246,250)"/>
<rect x="176" y="150" width="22" height="22" fill="rgb(247,248,252)"/>
<rect x="198" y="150" width="22" height="22" fill="rgb(254,254,254)"/>
<rect x="220" y="150" width="22" height="22" fill="rgb(252,253,254)"/>
<rect x="242" y="150" width="22" height="22" fill="rgb(255,255,255)"/>
<rect x="264" y="150" width="22" height="22" fill="rgb(255,255,255)"/>
<rect x="286" y="150" width="22" height="22" fill="rgb(255,255,255)"/>
<rect x="308" y="150" width="22" height="22" fill="rgb(255,255,255)"/>
<rect x="330" y="150" width="22" height="22" fill="rgb(255,255,255)"/>
<rect x="352" y="150" width="22" height="22" fill="rgb(255,255,255)"/>
<rect x="374" y="150" width="22" height="22" fill="rgb(255,255,255)"/>
<rect x="396" y="150" width="22" height="22" fill="rgb(255,255,255)"/>
<rect x="418" y="150" width="22" height="22" fill="rgb(255,255,255)"/>
<rect x="440" y="150" width="22" height="22" fill="rgb(255,255,255)"/>
<text x="104" y="165" text-anchor="end">星期</text>
<rect x="110" y="172" width="22" height="22" fill="rgb(166,179,219)"/>
<rect x="132" y="172" width="22" height="22" fill="rgb(180,192,225)"/>
<rect x="154" y="172" width="22" height="22" fill="rgb(243,245,250)"/>
<rect x="176" y="172" width="22" height="22" fill="rgb(239,241,248)"/>
<rect x="198" y="172" width="22" height="22" fill="rgb(254,254,254)"/>
<rect x="220" y="172" width="22" height="22" fill="rgb(250,251,253)"/>
<rect x="242" y="172" width="22" height="22" fill="rgb(249,250,252)"/>
<rect x="264" y="172" width="22" height="22" fill="rgb(255,255,255)"/>
<rect x="286" y="172" width="22" height="22" fill="rgb(255,255,255)"/>
<rect x="308" y="172" width="22" height="22" fill="rgb(255,255,255)"/>
<rect x="330" y="172" width="22" height="22" fill="rgb(255,255,255)"/>
<rect x="352" y="172" width="22" height="22" fill="rgb(255,255,255)"/>
<rect x="374" y="172" width="22" height="22" fill="rgb(255,255,255)"/>
<rect x="396" y="172" width="22" height="22" fill="rgb(255,255,255)"/>
<rect x="418" y="172" width="22" height="22" fill="rgb(255,255,255)"/>
<rect x="440" y="172" width="22" height="22" fill="rgb(255,255,255)"/>
<text x="104" y="187" text-anchor="end">把</text>
<rect x="110" y="194" width="22" height="22" fill="rgb(156,170,215)"/>
<rect x="132" y="194" width="22" height="22" fill="rgb(164,177,218)"/>
<rect x="154" y="194" width="22" height="22" fill="rgb(252,252,253)"/>
<rect x="176" y="194" width="22" height="22" fill="rgb(252,252,253)"/>
<rect x="198" y="194" width="22" height="22" fill="rgb(254,254,254)"/>
<rect x="220" y="194" width="22" height="22" fill="rgb(252,252,254)"/>
<rect x="242" y="194" width="22" height="22" fill="rgb(252,253,254)"/>
<rect x="264" y="194" width="22" height="22" fill="rgb(254,254,254)"/>
<rect x="286" y="194" width="22" height="22" fill="rgb(255,255,255)"/>
<rect x="308" y="194" width="22" height="22" fill="rgb(255,255,255)"/>
<rect x="330" y="194" width="22" height="22" fill="rgb(255,255,255)"/>
<rect x="352" y="194" width="22" height="22" fill="rgb(255,255,255)"/>
<rect x="374" y="194" width="22" height="22" fill="rgb(255,255,255)"/>
<rect x="396" y="194" width="22" height="22" fill="rgb(255,255,255)"/>
<rect x="418" y="194" width="22" height="22" fill="rgb(255,255,255)"/>
<rect x="440" y="194" width="22" height="22" fill="rgb(255,255,255)"/>
<text x="104" y="209" text-anchor="end">�</text>
<rect x="110" y="216" width="22" height="22" fill="rgb(157,172,216)"/>
<rect x="132" y="216" width="22" height="22" fill="rgb(167,180,220)"/>
<rect x="154" y="216" width="22" height="22" fill="rgb(252,252,254)"/>
<rect x="176" y="216" width="22" height="22" fill="rgb(252,253,254)"/>
<rect x="198" y="216" width="22" height="22" fill="rgb(254,254,254)"/>
<rect x="220" y="216" width="22" height="22" fill="rgb(252,253,254)"/>
<rect x="242" y="216" width="22" height="22" fill="rgb(252,252,253)"/>
<rect x="264" y="216" width="22" height="22" fill="rgb(254,254,254)"/>
<rect x="286" y="216" width="22" height="22" fill="rgb(249,250,252)"/>
<rect x="308" y="216" width="22" height="22" fill="rgb(255,255,255)"/>
<rect x="330" y="216" width="22" height="22" fill="rgb(255,255,255)"/>
<rect x="352" y="216" width="22" height="22" fill="rgb(255,255,255)"/>
<rect x="374" y="216" width="22" height="22" fill="rgb(255,255,255)"/>
<rect x="396" y="216" width="22" height="22" fill="rgb(255,255,255)"/>
<rect x="418" y="216" width="22" height="22" fill="rgb(255,255,255)"/>
<rect x="440" y="216" width="22" height="22" fill="rgb(255,255,255)"/>
<text x="104" y="231" text-anchor="end">�</text>
<rect x="110" y="238" width="22" height="22" fill="rgb(161,175,217)"/>
<rect x="132" y="238" width="22" height="22" fill="rgb(175,187,223)"/>
<rect x="154" y="238" width="22" height="22" fill="rgb(250,250,253)"/>
<rect x="176" y="238" width="22" height="22" fill="rgb(251,252,253)"/>
<rect x="198" y="238" width="22" height="22" fill="rgb(254,254,254)"/>
<rect x="220" y="238" width="22" height="22" fill="rgb(251,251,253)"/>
<rect x="242" y="238" width="22" height="22" fill="rgb(245,246,251)"/>
<rect x="264" y="238" width="22" height="22" fill="rgb(254,254,254)"/>
<rect x="286" y="238" width="22" height="22" fill="rgb(252,252,253)"/>
<rect x="308" y="238" width="22" height="22" fill="rgb(252,253,254)"/>
<rect x="330" y="238" width="22" height="22" fill="rgb(255,255,255)"/>
<rect x="352" y="238" width="22" height="22" fill="rgb(255,255,255)"/>
<rect x="374" y="238" width="22" height="22" fill="rgb(255,255,255)"/>
<rect x="396" y="238" width="22" height="22" fill="rgb(255,255,255)"/>
<rect x="418" y="238" width="22" height="22" fill="rgb(255,255,255)"/>
<rect x="440" y="238" width="22" height="22" fill="rgb(255,255,255)"/>
<text x="104" y="253" text-anchor="end">匙</text>
<rect x="110" y="260" width="22" height="22" fill="rgb(182,193,225)"/>
<rect x="132" y="260" width="22" height="22" fill="rgb(185,195,227)"/>
<rect x="154" y="260" width="22" height="22" fill="rgb(226,230,243)"/>
<rect x="176" y="260" width="22" height="22" fill="rgb(237,240,248)"/>
<rect x="198" y="260" width="22" height="22" fill="rgb(254,254,254)"/>
<rect x="220" y="260" width="22" height="22" fill="rgb(254,254,254)"/>
<rect x="242" y="260" width="22" height="22" fill="rgb(252,253,254)"/>
<rect x="264" y="260" width="22" height="22" fill="rgb(254,254,254)"/>
<rect x="286" y="260" width="22" height="22" fill="rgb(252,252,253)"/>
<rect x="308" y="260" width="22" height="22" fill="rgb(254,254,254)"/>
<rect x="330" y="260" width="22" height="22" fill="rgb(249,250,252)"/>
<rect x="352" y="260" width="22" height="22" fill="rgb(255,255,255)"/>
<rect x="374" y="260" width="22" height="22" fill="rgb(255,255,255)"/>
<rect x="396" y="260" width="22" height="22" fill="rgb(255,255,255)"/>
<rect x="418" y="260" width="22" height="22" fill="rgb(255,255,255)"/>
<rect x="440" y="260" width="22" height="22" fill="rgb(255,255,255)"/>
<text x="104" y="275" text-anchor="end">弄</text>
<rect x="110" y="282" width="22" height="22" fill="rgb(167,180,219)"/>
<rect x="132" y="282" width="22" height="22" fill="rgb(181,192,225)"/>
<rect x="154" y="282" width="22" height="22" fill="rgb(241,243,249)"/>
<rect x="176" y="282" width="22" height="22" fill="rgb(243,245,250)"/>
<rect x="198" y="282" width="22" height="22" fill="rgb(254,254,254)"/>
<rect x="220" y="282" width="22" height="22" fill="rgb(254,254,254)"/>
<rect x="242" y="282" width="22" height="22" fill="rgb(253,253,254)"/>
<rect x="264" y="282" width="22" height="22" fill="rgb(254,254,254)"/>
<rect x="286" y="282" width="22" height="22" fill="rgb(253,253,254)"/>
<rect x="308" y="282" width="22" height="22" fill="rgb(254,254,254)"/>
<rect x="330" y="282" width="22" height="22" fill="rgb(253,253,254)"/>
<rect x="352" y="282" width="22" height="22" fill="rgb(247,248,252)"/>
<rect x="374" y="282" width="22" height="22" fill="rgb(255,255,255)"/>
<rect x="396" y="282" width="22" height="22" fill="rgb(255,255,255)"/>
<rect x="418" y="282" width="22" height="22" fill="rgb(255,255,255)"/>
<rect x="440" y="282" width="22" height="22" fill="rgb(255,255,255)"/>
<text x="104" y="297" text-anchor="end">丟</text>
<rect x="110" y="304" width="22" height="22" fill="rgb(160,174,217)"/>
<rect x="132" y="304" width="22" height="22" fill="rgb(176,187,223)"/>
<rect x="154" y="304" width="22" height="22" fill="rgb(252,252,253)"/>
<rect x="176" y="304" width="22" height="22" fill="rgb(250,251,253)"/>
<rect x="198" y="304" width="22" height="22" fill="rgb(254,254,254)"/>
<rect x="220" y="304" width="22" height="22" fill="rgb(254,254,254)"/>
<rect x="242" y="304" width="22" height="22" fill="rgb(252,253,254)"/>
<rect x="264" y="304" width="22" height="22" fill="rgb(254,254,254)"/>
<rect x="286" y="304" width="22" height="22" fill="rgb(253,253,254)"/>
<rect x="308" y="304" width="22" height="22" fill="rgb(253,253,254)"/>
<rect x="330" y="304" width="22" height="22" fill="rgb(253,253,254)"/>
<rect x="352" y="304" width="22" height="22" fill="rgb(253,253,254)"/>
<rect x="374" y="304" width="22" height="22" fill="rgb(244,245,250)"/>
<rect x="396" y="304" width="22" height="22" fill="rgb(255,255,255)"/>
<rect x="418" y="304" width="22" height="22" fill="rgb(255,255,255)"/>
<rect x="440" y="304" width="22" height="22" fill="rgb(255,255,255)"/>
<text x="104" y="319" text-anchor="end">的老</text>
<rect x="110" y="326" width="22" height="22" fill="rgb(165,178,219)"/>
<rect x="132" y="326" width="22" height="22" fill="rgb(176,188,223)"/>
<rect x="154" y="326" width="22" height="22" fill="rgb(253,253,254)"/>
<rect x="176" y="326" width="22" height="22" fill="rgb(250,251,253)"/>
<rect x="198" y="326" width="22" height="22" fill="rgb(254,254,254)"/>
<rect x="220" y="326" width="22" height="22" fill="rgb(254,254,254)"/>
<rect x="242" y="326" width="22" height="22" fill="rgb(253,253,254)"/>
<rect x="264" y="326" width="22" height="22" fill="rgb(254,254,254)"/>
<rect x="286" y="326" width="22" height="22" fill="rgb(254,254,254)"/>
<rect x="308" y="326" width="22" height="22" fill="rgb(253,253,254)"/>
<rect x="330" y="326" width="22" height="22" fill="rgb(254,254,254)"/>
<rect x="352" y="326" width="22" height="22" fill="rgb(254,254,254)"/>
<rect x="374" y="326" width="22" height="22" fill="rgb(245,247,251)"/>
<rect x="396" y="326" width="22" height="22" fill="rgb(242,244,250)"/>
<rect x="418" y="326" width="22" height="22" fill="rgb(255,255,255)"/>
<rect x="440" y="326" width="22" height="22" fill="rgb(255,255,255)"/>
<text x="104" y="341" text-anchor="end">先生</text>
<rect x="110" y="348" width="22" height="22" fill="rgb(173,185,222)"/>
<rect x="132" y="348" width="22" height="22" fill="rgb(189,199,228)"/>
<rect x="154" y="348" width="22" height="22" fill="rgb(251,252,253)"/>
<rect x="176" y="348" width="22" height="22" fill="rgb(250,250,253)"/>
<rect x="198" y="348" width="22" height="22" fill="rgb(254,254,254)"/>
<rect x="220" y="348" width="22" height="22" fill="rgb(253,254,254)"/>
<rect x="242" y="348" width="22" height="22" fill="rgb(242,244,249)"/>
<rect x="264" y="348" width="22" height="22" fill="rgb(254,254,254)"/>
<rect x="286" y="348" width="22" height="22" fill="rgb(254,254,254)"/>
<rect x="308" y="348" width="22" height="22" fill="rgb(254,254,254)"/>
<rect x="330" y="348" width="22" height="22" fill="rgb(251,251,253)"/>
<rect x="352" y="348" width="22" height="22" fill="rgb(248,249,252)"/>
<rect x="374" y="348" width="22" height="22" fill="rgb(238,240,248)"/>
<rect x="396" y="348" width="22" height="22" fill="rgb(254,254,254)"/>
<rect x="418" y="348" width="22" height="22" fill="rgb(253,253,254)"/>
<rect x="440" y="348" width="22" height="22" fill="rgb(255,255,255)"/>
<text x="104" y="363" text-anchor="end">今天</text>
<rect x="110" y="370" width="22" height="22" fill="rgb(179,190,224)"/>
<rect x="132" y="370" width="22" height="22" fill="rgb(188,198,228)"/>
<rect x="154" y="370" width="22" height="22" fill="rgb(251,251,253)"/>
<rect x="176" y="370" width="22" height="22" fill="rgb(252,253,254)"/>
<rect x="198" y="370" width="22" height="22" fill="rgb(254,254,254)"/>
<rect x="220" y="370" width="22" height="22" fill="rgb(254,254,254)"/>
<rect x="242" y="370" width="22" height="22" fill="rgb(252,252,253)"/>
<rect x="264" y="370" width="22" height="22" fill="rgb(254,254,254)"/>
<rect x="286" y="370" width="22" height="22" fill="rgb(254,254,254)"/>
<rect x="308" y="370" width="22" height="22" fill="rgb(254,254,254)"/>
<rect x="330" y="370" width="22" height="22" fill="rgb(254,254,254)"/>
<rect x="352" y="370" width="22" height="22" fill="rgb(254,254,254)"/>
<rect x="374" y="370" width="22" height="22" fill="rgb(251,252,253)"/>
<rect x="396" y="370" width="22" height="22" fill="rgb(254,254,254)"/>
<rect x="418" y="370" width="22" height="22" fill="rgb(239,242,248)"/>
<rect x="440" y="370" width="22" height="22" fill="rgb(226,231,243)"/>
<text x="104" y="385" text-anchor="end">終於</text>
<text transform="translate(121,400) rotate(60)" text-anchor="start">那位</text>
<text transform="translate(143,400) rotate(60)" text-anchor="start">住在</text>
<text transform="translate(165,400) rotate(60)" text-anchor="start">隔壁</text>
<text transform="translate(187,400) rotate(60)" text-anchor="start">、</text>
<text transform="translate(209,400) rotate(60)" text-anchor="start">上</text>
<text transform="translate(231,400) rotate(60)" text-anchor="start">星期</text>
<text transform="translate(253,400) rotate(60)" text-anchor="start">把</text>
<text transform="translate(275,400) rotate(60)" text-anchor="start">�</text>
<text transform="translate(297,400) rotate(60)" text-anchor="start">�</text>
<text transform="translate(319,400) rotate(60)" text-anchor="start">匙</text>
<text transform="translate(341,400) rotate(60)" text-anchor="start">弄</text>
<text transform="translate(363,400) rotate(60)" text-anchor="start">丟</text>
<text transform="translate(385,400) rotate(60)" text-anchor="start">的老</text>
<text transform="translate(407,400) rotate(60)" text-anchor="start">先生</text>
<text transform="translate(429,400) rotate(60)" text-anchor="start">今天</text>
<text transform="translate(451,400) rotate(60)" text-anchor="start">終於</text>
</svg>
