<svg xmlns="http://www.w3.org/2000/svg" viewBox="0 0 700 548" width="100%" font-family="-apple-system,BlinkMacSystemFont,Segoe UI,Helvetica Neue,PingFang TC,Noto Sans TC,sans-serif"><defs><marker id="ah" viewBox="0 0 10 10" refX="9" refY="5" markerWidth="7" markerHeight="7" orient="auto-start-reverse"><path d="M0,0 L10,5 L0,10 z" fill="#6b7280"/></marker></defs><defs><marker id="ahr" viewBox="0 0 10 10" refX="9" refY="5" markerWidth="7" markerHeight="7" orient="auto-start-reverse"><path d="M0,0 L10,5 L0,10 z" fill="#dc2626"/></marker></defs><line x1="114" y1="334" x2="670" y2="334" stroke="#1f2328" stroke-width="2"/><text x="152" y="326" font-size="20" fill="#6b7280" text-anchor="middle" font-weight="400">0</text><rect x="179" y="134" width="38" height="200" rx="3" fill="#dc2626"/><text x="175" y="364" font-size="23" fill="#1f2328" text-anchor="middle" font-weight="700">0</text><rect x="243" y="134" width="38" height="200" rx="3" fill="#cbd5e1"/><rect x="289" y="276.454" width="38" height="57.5463" rx="3" fill="#0b5cad"/><text x="285" y="364" font-size="23" fill="#1f2328" text-anchor="middle" font-weight="700">1</text><rect x="353" y="276.454" width="38" height="57.5463" rx="3" fill="#cbd5e1"/><rect x="399" y="299.987" width="38" height="34.0132" rx="3" fill="#0b5cad"/><text x="395" y="364" font-size="23" fill="#1f2328" text-anchor="middle" font-weight="700">2</text><rect x="463" y="299.987" width="38" height="34.0132" rx="3" fill="#cbd5e1"/><rect x="509" y="310.467" width="38" height="23.5331" rx="3" fill="#0b5cad"/><text x="505" y="364" font-size="23" fill="#1f2328" text-anchor="middle" font-weight="700">3</text><rect x="573" y="310.467" width="38" height="23.5331" rx="3" fill="#cbd5e1"/><rect x="619" y="316.554" width="38" height="17.4459" rx="3" fill="#0b5cad"/><text x="615" y="364" font-size="23" fill="#1f2328" text-anchor="middle" font-weight="700">4</text><path d="M262,128 Q230,94 198,126" fill="none" stroke="#dc2626" stroke-width="2.4" marker-end="url(#ahr)"/><path d="M372,270.454 Q340,236.454 308,268.454" fill="none" stroke="#6b7280" stroke-width="2.4" marker-end="url(#ah)"/><path d="M482,293.987 Q450,259.987 418,291.987" fill="none" stroke="#6b7280" stroke-width="2.4" marker-end="url(#ah)"/><path d="M592,304.467 Q560,270.467 528,302.467" fill="none" stroke="#6b7280" stroke-width="2.4" marker-end="url(#ah)"/><text x="120" y="44" font-size="24" fill="#dc2626" text-anchor="start" font-weight="700"><tspan >unseen gets </tspan><tspan font-style="italic">N</tspan><tspan dy="6" font-size="16.8">1</tspan><tspan dy="-6"> / </tspan><tspan font-style="italic">D</tspan><tspan > = 31.9%</tspan></text><text x="120" y="72" font-size="20" fill="#6b7280" text-anchor="start" font-weight="400">held-out text actually unseen: 36.4%</text><text x="106" y="364" font-size="23" fill="#1f2328" text-anchor="end" font-weight="700"><tspan font-style="italic">c</tspan></text><rect x="330" y="158" width="20" height="20" rx="3" fill="#cbd5e1"/><text x="360" y="174" font-size="22" fill="#1f2328" text-anchor="start" font-weight="400"><tspan >MLE:  </tspan><tspan font-style="italic">c</tspan><tspan > · </tspan><tspan font-style="italic">N</tspan><tspan font-style="italic" dy="6" font-size="15.4">c</tspan><tspan dy="-6"> / </tspan><tspan font-style="italic">D</tspan></text><rect x="330" y="194" width="20" height="20" rx="3" fill="#0b5cad"/><text x="360" y="210" font-size="22" fill="#1f2328" text-anchor="start" font-weight="400"><tspan >Good–Turing:  (</tspan><tspan font-style="italic">c</tspan><tspan >+1) · </tspan><tspan font-style="italic">N</tspan><tspan font-style="italic" dy="6" font-size="15.4">c+1</tspan><tspan dy="-6"> / </tspan><tspan font-style="italic">D</tspan></text><text x="330" y="242" font-size="18" fill="#6b7280" text-anchor="start" font-weight="400"><tspan >bar = total mass of all types seen </tspan><tspan font-style="italic">c</tspan><tspan > times</tspan></text><line x1="114" y1="382" x2="670" y2="382" stroke="#e5e7eb" stroke-width="1.2"/><text x="106" y="418" font-size="21" fill="#1f2328" text-anchor="end" font-weight="400"><tspan font-style="italic">N</tspan><tspan font-style="italic" dy="6" font-size="14.7">c</tspan></text><text x="175" y="418" font-size="21" fill="#6b7280" text-anchor="middle" font-weight="400">—</text><text x="285" y="418" font-size="21" fill="#1f2328" text-anchor="middle" font-weight="400">71,821</text><text x="395" y="418" font-size="21" fill="#1f2328" text-anchor="middle" font-weight="400">10,329</text><text x="505" y="418" font-size="21" fill="#1f2328" text-anchor="middle" font-weight="400">4,070</text><text x="615" y="418" font-size="21" fill="#1f2328" text-anchor="middle" font-weight="400">2,111</text><text x="106" y="454" font-size="21" fill="#0b5cad" text-anchor="end" font-weight="700"><tspan font-style="italic">c</tspan><tspan >*</tspan><tspan >  GT</tspan></text><text x="175" y="454" font-size="21" fill="#6b7280" text-anchor="middle" font-weight="400">—</text><text x="285" y="454" font-size="21" fill="#0b5cad" text-anchor="middle" font-weight="700">0.29</text><text x="395" y="454" font-size="21" fill="#0b5cad" text-anchor="middle" font-weight="700">1.18</text><text x="505" y="454" font-size="21" fill="#0b5cad" text-anchor="middle" font-weight="700">2.08</text><text x="615" y="454" font-size="21" fill="#0b5cad" text-anchor="middle" font-weight="700">2.97</text><text x="106" y="490" font-size="21" fill="#b45309" text-anchor="end" font-weight="700"><tspan >held-out</tspan></text><text x="175" y="490" font-size="21" fill="#6b7280" text-anchor="middle" font-weight="400">—</text><text x="285" y="490" font-size="21" fill="#b45309" text-anchor="middle" font-weight="700">0.27</text><text x="395" y="490" font-size="21" fill="#b45309" text-anchor="middle" font-weight="700">1.06</text><text x="505" y="490" font-size="21" fill="#b45309" text-anchor="middle" font-weight="700">2.02</text><text x="615" y="490" font-size="21" fill="#b45309" text-anchor="middle" font-weight="700">2.92</text><text x="106" y="530" font-size="17" fill="#6b7280" text-anchor="start" font-weight="400">held-out: mean count in the last 10%, rescaled to training length</text></svg>