<svg xmlns="http://www.w3.org/2000/svg" viewBox="0 0 1240 500" width="100%" font-family="-apple-system,BlinkMacSystemFont,Segoe UI,Helvetica Neue,PingFang TC,Noto Sans TC,sans-serif"><defs><marker id="ah" viewBox="0 0 10 10" refX="9" refY="5" markerWidth="7" markerHeight="7" orient="auto-start-reverse"><path d="M0,0 L10,5 L0,10 z" fill="#6b7280"/></marker></defs><rect x="60" y="40" width="120" height="56" rx="8" fill="#eef2ff" stroke="#0b5cad" stroke-width="1.6"/><text x="120" y="78" font-size="25" fill="#0b5cad" text-anchor="middle" font-weight="700"><tspan font-style="italic">h</tspan><tspan dy="6" font-size="17.5">1</tspan></text><rect x="262" y="40" width="120" height="56" rx="8" fill="#eef2ff" stroke="#0b5cad" stroke-width="1.6"/><text x="322" y="78" font-size="25" fill="#0b5cad" text-anchor="middle" font-weight="700"><tspan font-style="italic">h</tspan><tspan dy="6" font-size="17.5">2</tspan></text><rect x="464" y="40" width="120" height="56" rx="8" fill="#eef2ff" stroke="#0b5cad" stroke-width="1.6"/><text x="524" y="78" font-size="25" fill="#0b5cad" text-anchor="middle" font-weight="700"><tspan font-style="italic">h</tspan><tspan dy="6" font-size="17.5">3</tspan></text><text x="726" y="78" font-size="30" fill="#6b7280" text-anchor="middle" font-weight="400">⋯</text><rect x="868" y="40" width="120" height="56" rx="8" fill="#eef2ff" stroke="#0b5cad" stroke-width="1.6"/><text x="928" y="78" font-size="25" fill="#0b5cad" text-anchor="middle" font-weight="700"><tspan font-style="italic">h</tspan><tspan dy="6" font-size="17.5">T−1</tspan></text><rect x="1070" y="40" width="120" height="56" rx="8" fill="#eef2ff" stroke="#0b5cad" stroke-width="1.6"/><text x="1130" y="78" font-size="25" fill="#0b5cad" text-anchor="middle" font-weight="700"><tspan font-style="italic">h</tspan><tspan font-style="italic" dy="6" font-size="17.5">T</tspan></text><line x1="182" y1="68" x2="260" y2="68" stroke="#1f2328" stroke-width="2" marker-end="url(#ah)"/><line x1="384" y1="68" x2="462" y2="68" stroke="#1f2328" stroke-width="2" marker-end="url(#ah)"/><line x1="586" y1="68" x2="664" y2="68" stroke="#1f2328" stroke-width="2" marker-end="url(#ah)"/><line x1="788" y1="68" x2="866" y2="68" stroke="#1f2328" stroke-width="2" marker-end="url(#ah)"/><line x1="990" y1="68" x2="1068" y2="68" stroke="#1f2328" stroke-width="2" marker-end="url(#ah)"/><path d="M1130,102 Q625,170 120,102" fill="none" stroke="#dc2626" stroke-width="2.6" stroke-dasharray="8 6" marker-end="url(#ah)"/><text x="625" y="182" font-size="22" fill="#dc2626" text-anchor="middle" font-weight="700"><tspan font-style="italic">∂L/∂h</tspan><tspan dy="6" font-size="15.4">1</tspan><tspan font-style="italic" dy="-6"> = ∂L/∂h</tspan><tspan font-style="italic" dy="6" font-size="15.4">T</tspan><tspan dy="-6"> · ∏</tspan><tspan font-style="italic" dy="6" font-size="15.4">t</tspan><tspan dy="-6"> diag(φ′) W</tspan></text><text x="625" y="210" font-size="20" fill="#dc2626" text-anchor="middle" font-weight="400"><tspan >one factor per step back, each with ‖·‖ ≤ γ σ</tspan><tspan dy="6" font-size="14">max</tspan></text><line x1="110" y1="411.667" x2="1150" y2="411.667" stroke="#e5e7eb" stroke-width="1.2"/><text x="100" y="417.667" font-size="18" fill="#6b7280" text-anchor="end" font-weight="400">0.01</text><line x1="110" y1="355" x2="1150" y2="355" stroke="#e5e7eb" stroke-width="1.2"/><text x="100" y="361" font-size="18" fill="#6b7280" text-anchor="end" font-weight="400">1</text><line x1="110" y1="298.333" x2="1150" y2="298.333" stroke="#e5e7eb" stroke-width="1.2"/><text x="100" y="304.333" font-size="18" fill="#6b7280" text-anchor="end" font-weight="400">100</text><text x="110" y="464" font-size="18" fill="#6b7280" text-anchor="middle" font-weight="400">1</text><text x="301.02" y="464" font-size="18" fill="#6b7280" text-anchor="middle" font-weight="400">10</text><text x="513.265" y="464" font-size="18" fill="#6b7280" text-anchor="middle" font-weight="400">20</text><text x="725.51" y="464" font-size="18" fill="#6b7280" text-anchor="middle" font-weight="400">30</text><text x="937.755" y="464" font-size="18" fill="#6b7280" text-anchor="middle" font-weight="400">40</text><text x="1150" y="464" font-size="18" fill="#6b7280" text-anchor="middle" font-weight="400">50</text><text x="1166" y="464" font-size="20" fill="#1f2328" text-anchor="start" font-weight="400"><tspan font-style="italic">T</tspan></text><text x="110" y="256" font-size="19" fill="#6b7280" text-anchor="start" font-weight="400"><tspan >the bound (γ σ</tspan><tspan dy="6" font-size="13.3">max</tspan><tspan dy="-6">)</tspan><tspan dy="-9" font-size="13.3">T−1</tspan><tspan dy="9">, log scale</tspan></text><polyline points="110,355 131.224,356.296 152.449,357.593 173.673,358.889 194.898,360.186 216.122,361.482 237.347,362.779 258.571,364.075 279.796,365.372 301.02,366.668 322.245,367.965 343.469,369.261 364.694,370.558 385.918,371.854 407.143,373.15 428.367,374.447 449.592,375.743 470.816,377.04 492.041,378.336 513.265,379.633 534.49,380.929 555.714,382.226 576.939,383.522 598.163,384.819 619.388,386.115 640.612,387.412 661.837,388.708 683.061,390.004 704.286,391.301 725.51,392.597 746.735,393.894 767.959,395.19 789.184,396.487 810.408,397.783 831.633,399.08 852.857,400.376 874.082,401.673 895.306,402.969 916.531,404.266 937.755,405.562 958.98,406.858 980.204,408.155 1001.43,409.451 1022.65,410.748 1043.88,412.044 1065.1,413.341 1086.33,414.637 1107.55,415.934 1128.78,417.23 1150,418.527" fill="none" stroke="#0b5cad" stroke-width="3" stroke-linejoin="round"/><text x="1142" y="442.527" font-size="20" fill="#0b5cad" text-anchor="end" font-weight="700">0.9 per step: ×0.006 after 50 steps</text><polyline points="110,355 131.224,355 152.449,355 173.673,355 194.898,355 216.122,355 237.347,355 258.571,355 279.796,355 301.02,355 322.245,355 343.469,355 364.694,355 385.918,355 407.143,355 428.367,355 449.592,355 470.816,355 492.041,355 513.265,355 534.49,355 555.714,355 576.939,355 598.163,355 619.388,355 640.612,355 661.837,355 683.061,355 704.286,355 725.51,355 746.735,355 767.959,355 789.184,355 810.408,355 831.633,355 852.857,355 874.082,355 895.306,355 916.531,355 937.755,355 958.98,355 980.204,355 1001.43,355 1022.65,355 1043.88,355 1065.1,355 1086.33,355 1107.55,355 1128.78,355 1150,355" fill="none" stroke="#6b7280" stroke-width="2" stroke-linejoin="round"/><text x="1142" y="377" font-size="20" fill="#6b7280" text-anchor="end" font-weight="700">exactly 1</text><polyline points="110,355 131.224,353.827 152.449,352.654 173.673,351.482 194.898,350.309 216.122,349.136 237.347,347.963 258.571,346.79 279.796,345.618 301.02,344.445 322.245,343.272 343.469,342.099 364.694,340.926 385.918,339.754 407.143,338.581 428.367,337.408 449.592,336.235 470.816,335.063 492.041,333.89 513.265,332.717 534.49,331.544 555.714,330.371 576.939,329.199 598.163,328.026 619.388,326.853 640.612,325.68 661.837,324.507 683.061,323.335 704.286,322.162 725.51,320.989 746.735,319.816 767.959,318.643 789.184,317.471 810.408,316.298 831.633,315.125 852.857,313.952 874.082,312.779 895.306,311.607 916.531,310.434 937.755,309.261 958.98,308.088 980.204,306.915 1001.43,305.743 1022.65,304.57 1043.88,303.397 1065.1,302.224 1086.33,301.052 1107.55,299.879 1128.78,298.706 1150,297.533" fill="none" stroke="#dc2626" stroke-width="3" stroke-linejoin="round"/><text x="1142" y="281.533" font-size="20" fill="#dc2626" text-anchor="end" font-weight="700">1.1 per step: ×107 after 50 steps</text><text x="110" y="496" font-size="18" fill="#6b7280" text-anchor="start" font-weight="400">an upper bound: a small σmax forces the product down; a large one only permits it to grow</text></svg>